PathFileType	4	(X/Y/Z)	./resultDataOpenSim/trcMotMarkerGrf/sub10/qtm-03-01.trc
DataRate	CameraRate	NumFrames	NumMarkers	Units	OrigDataRate	OrigDataStartFrame	OrigNumFrames
250.000000	250.000000	7	24	m	250.000000	302	482
Frame#	Time	L.Toe.Tip			R.Toe.Tip			L.Ankle.Lat			R.Ankle.Lat			L.Ankle.Med			R.Ankle.Med			L.Heel			R.Heel			L.Knee.Lat			R.Knee.Lat			L.Knee.Med			R.Knee.Med			L.Thigh.Upper			R.Thigh.Upper			L.ASIS			R.ASIS			V.Sacral			L.Acromium			R.Acromium			C7			L.Elbow			R.Elbow			L.Wrist.Lat			R.Wrist.Lat
		X1	Y1	Z1	X2	Y2	Z2	X3	Y3	Z3	X4	Y4	Z4	X5	Y5	Z5	X6	Y6	Z6	X7	Y7	Z7	X8	Y8	Z8	X9	Y9	Z9	X10	Y10	Z10	X11	Y11	Z11	X12	Y12	Z12	X13	Y13	Z13	X14	Y14	Z14	X15	Y15	Z15	X16	Y16	Z16	X17	Y17	Z17	X18	Y18	Z18	X19	Y19	Z19	X20	Y20	Z20	X21	Y21	Z21	X22	Y22	Z22	X23	Y23	Z23	X24	Y24	Z24

302	1.204	0.013605327	-0.0081755065	-0.14900747	0.79667419	0.040811952	-0.067445134	-0.021046104	0.11946808	-0.19772709	0.65983028	0.053490625	-0.010683211	0.012114892	0.12774786	-0.12176243	0.66640911	0.080387365	-0.096509075	-0.06814813	0.15953784	-0.14658373	0.60426443	0.029011963	-0.049012337	0.2525893	0.39247001	-0.24598273	0.62063241	0.45112032	0.018726223	0.27872168	0.35081187	-0.13367035	0.60815082	0.45904755	-0.10893216	0.34297952	0.76011606	-0.27888194	0.47095423	0.83853514	0.083831169	0.42746194	0.86772888	-0.2439466	0.49900633	0.92020986	-0.013771779	0.27246907	0.895202	-0.06940011	0.40656349	1.3650471	-0.25334951	0.39482407	1.3448955	0.065491876	0.31841092	1.385939	-0.10146695	0.41557736	1.0186005	-0.32706998	0.21438668	1.0520697	0.069887931	0.65904909	0.96617006	-0.29541567	0.21811106	0.83211788	0.17580061
303	1.208	0.016245504	-0.0066488892	-0.1492779	0.79700817	0.040618367	-0.067534789	-0.013504647	0.12206624	-0.19905927	0.66010627	0.053470655	-0.010817712	0.020041685	0.12973757	-0.12304399	0.66653491	0.080197445	-0.096710922	-0.059041862	0.16417522	-0.14805424	0.60443679	0.029028342	-0.049016213	0.26231597	0.39195505	-0.24716335	0.62563457	0.45140818	0.018303193	0.28953913	0.34913922	-0.13558163	0.61237976	0.45974217	-0.10932168	0.35101616	0.75916354	-0.27887319	0.47780788	0.84029165	0.083874742	0.43477637	0.86734256	-0.24313882	0.50563148	0.9214104	-0.013577535	0.27815262	0.89607164	-0.069833286	0.41271299	1.3657107	-0.25266422	0.40143106	1.3453573	0.065951929	0.32446472	1.3863378	-0.10078654	0.42106023	1.0197449	-0.327491	0.22204326	1.0520328	0.070029326	0.66396631	0.96494048	-0.29539224	0.22620782	0.83190036	0.17595525
304	1.212	0.019050233	-0.0049382724	-0.14969278	0.79728079	0.040475371	-0.067560186	-0.0057458722	0.12492235	-0.20040321	0.6603306	0.053452224	-0.010909037	0.028145287	0.13192759	-0.12428829	0.66665211	0.080042019	-0.09685158	-0.049555782	0.16893626	-0.1495357	0.60458277	0.029030224	-0.049007928	0.27215985	0.39145224	-0.2483279	0.6303821	0.45154734	0.017969616	0.30036298	0.34759827	-0.13739046	0.61642251	0.46027835	-0.10964379	0.3590232	0.75832158	-0.27885747	0.4845485	0.8419791	0.083960611	0.44200702	0.86697048	-0.24234737	0.51216836	0.92253532	-0.013383065	0.2838549	0.89702614	-0.070173471	0.41881343	1.3663821	-0.25206849	0.40797709	1.345835	0.066386831	0.33044689	1.3867176	-0.1001497	0.4264892	1.0208689	-0.32794422	0.2295136	1.0519622	0.070315402	0.66880113	0.96363122	-0.29540495	0.23455715	0.83167257	0.1761784
305	1.216	0.022076267	-0.0030605662	-0.15031959	0.79750739	0.040358082	-0.067549242	0.0022515237	0.12804122	-0.20173589	0.66051733	0.05342673	-0.010970778	0.036438154	0.13433291	-0.12548298	0.66679883	0.079923741	-0.09694145	-0.039703657	0.17376364	-0.15097775	0.6047013	0.029020324	-0.048985072	0.28210783	0.39098483	-0.24947113	0.63490094	0.45161386	0.017687861	0.31113408	0.34625869	-0.13902892	0.62027919	0.46067939	-0.10994327	0.36696404	0.75763399	-0.27880272	0.49115865	0.84359067	0.084079041	0.4491517	0.86663902	-0.24156786	0.51859895	0.9235867	-0.013196475	0.28995014	0.89803858	-0.070439399	0.42488427	1.3670744	-0.25155703	0.41445191	1.3463387	0.066789409	0.33636729	1.3871082	-0.099567432	0.43186347	1.0219843	-0.32842234	0.23686525	1.0518125	0.070716748	0.67354216	0.96225722	-0.29547301	0.24310256	0.831434	0.17645232
306	1.22	0.025466582	-0.00099316137	-0.15118697	0.79767733	0.040261064	-0.067531721	0.01050185	0.13137563	-0.20300782	0.66067118	0.05338422	-0.011011479	0.044903032	0.13697001	-0.12660446	0.66695104	0.079839343	-0.096992022	-0.029576568	0.17858299	-0.15234796	0.60478369	0.028999081	-0.048949156	0.29216123	0.39057268	-0.25058671	0.63920098	0.45166092	0.017438488	0.32195232	0.34513916	-0.14048822	0.6239397	0.46097793	-0.11021872	0.37481742	0.75713791	-0.27872199	0.49762767	0.84512589	0.084229316	0.45621058	0.86639814	-0.24081466	0.52492919	0.92458971	-0.013009702	0.29631999	0.8990944	-0.070603905	0.43093158	1.3678076	-0.25112873	0.42085251	1.3468855	0.067173207	0.34218748	1.3875687	-0.099029471	0.43717376	1.0230992	-0.32890881	0.24424496	1.0515687	0.071104931	0.6781839	0.96083311	-0.29560139	0.25177187	0.83118181	0.17675141
307	1.224	0.029422608	0.0013016121	-0.15225799	0.79778383	0.040186822	-0.067516208	0.018992961	0.13484991	-0.20417525	0.66078885	0.053324639	-0.011029493	0.053502904	0.13982257	-0.12762808	0.66706597	0.079782402	-0.097006927	-0.019324589	0.18332043	-0.15360839	0.60482362	0.028968571	-0.048900911	0.30233775	0.39022997	-0.25167079	0.64326213	0.45170271	0.017241568	0.33305272	0.34421465	-0.1418309	0.62736511	0.46118761	-0.11040625	0.38257422	0.75685279	-0.27863598	0.50395547	0.84658825	0.084419003	0.46318428	0.86631905	-0.24013017	0.53118247	0.92556882	-0.012801795	0.30261395	0.90017557	-0.070611877	0.43694856	1.3685965	-0.25078693	0.42717928	1.3474895	0.067556148	0.34788399	1.3881571	-0.098521106	0.44241336	1.0242191	-0.32938191	0.25172814	1.0512577	0.071407951	0.68272025	0.95937205	-0.29578414	0.26053705	0.83091964	0.17706149
308	1.228	0.034145289	0.0038560218	-0.15347425	0.79783526	0.040134056	-0.06749353	0.027677446	0.13839226	-0.20521527	0.66086135	0.053259361	-0.011017271	0.062194582	0.14284099	-0.12853372	0.6671221	0.079748731	-0.096981604	-0.0091164707	0.18791306	-0.15472935	0.6048231	0.028930846	-0.04883964	0.31267495	0.38996508	-0.25272116	0.64706703	0.45174146	0.017123817	0.34452798	0.34350939	-0.14308819	0.63052065	0.46130123	-0.11044938	0.39023113	0.75677513	-0.27854657	0.51014411	0.84798159	0.084654852	0.47006342	0.86645958	-0.23956244	0.53738199	0.92653672	-0.012552243	0.30857154	0.90126019	-0.070444465	0.44293144	1.3694423	-0.25052714	0.43343286	1.3481532	0.067939713	0.35352309	1.388888	-0.098052762	0.44757763	1.0253473	-0.32982091	0.25925613	1.050924	0.071700397	0.68713917	0.95788112	-0.29601239	0.26941604	0.83065972	0.17738236
